<svg xmlns="http://www.w3.org/2000/svg" version="1.1" id="svg1" width="49.826668" height="49.693333" viewBox="0 0 49.826668 49.693333" sodipodi:docname="logopauline.svg" inkscape:version="1.4.4 (dcaf3e7d9e, 2026-05-05)" xmlns:inkscape="http://www.inkscape.org/namespaces/inkscape" xmlns:sodipodi="http://sodipodi.sourceforge.net/DTD/sodipodi-0.dtd" xmlns:svg="http://www.w3.org/2000/svg"><metadata><rdf:RDF xmlns:rdf="http://www.w3.org/1999/02/22-rdf-syntax-ns#" xmlns:dc="http://purl.org/dc/elements/1.1/"><rdf:Description><dc:creator>RealFaviconGenerator</dc:creator><dc:source>https://realfavicongenerator.net</dc:source></rdf:Description></rdf:RDF></metadata><defs id="defs1"></defs><sodipodi:namedview id="namedview1" pagecolor="#ffffff" bordercolor="#000000" borderopacity="0.25" inkscape:showpageshadow="2" inkscape:pageopacity="0.0" inkscape:pagecheckerboard="0" inkscape:deskcolor="#d1d1d1" inkscape:zoom="16.15911" inkscape:cx="24.939493" inkscape:cy="24.846666" inkscape:window-width="1854" inkscape:window-height="1011" inkscape:window-x="0" inkscape:window-y="0" inkscape:window-maximized="1" inkscape:current-layer="g1">
    <inkscape:page x="0" y="0" inkscape:label="1" id="page1" width="49.826668" height="49.693333" margin="0" bleed="0"></inkscape:page>
  </sodipodi:namedview><g id="g1" inkscape:groupmode="layer" inkscape:label="1">
    <path id="path1" d="m 304.031,69.4492 c -3.961,-0.1289 -7.64,-0.1875 -11.082,-0.1875 -35.23,0 -45.929,7.1485 -63.59,24.7071 -26.211,26.0702 -46.781,55.1522 -48.828,60.0432 -1.371,3.258 -1.562,5.558 -0.59,7.019 0.571,0.84 1.469,1.309 2.539,1.309 2.93,0 6.918,-3.602 9.918,-8.969 5.293,-9.48 61.262,-57.4218 109.782,-73.7226 5.91,-1.9882 8.718,-4.2773 8.351,-6.8086 -0.179,-1.1992 -1.261,-3.2187 -6.5,-3.3906 M 133.969,117.23 c -7.328,-37.0894 -9.86,-56.1714 -16.16,-23.6909 -6.309,32.4809 -6.969,49.1089 -1.719,96.2699 5.39,48.371 8.281,80.101 9.488,72.351 0.551,-3.601 11.922,-7.262 11.922,-7.262 0,0 3.789,-100.589 -3.531,-137.668 M 89.3789,274.379 c -2.8398,0 -3.3789,3.199 -4.3672,9.019 -0.1914,1.141 -0.4023,2.391 -0.6523,3.743 l -0.1406,0.757 0.6523,0.942 c 3.0781,3.691 40.9999,19.351 90.7579,19.351 15.922,0 31.601,-1.613 46.621,-4.8 32.422,-6.871 64.91,-30.602 63.172,-58.411 C 283.129,208.289 237.641,187.281 196,186.141 h -0.09 l -0.09,0.007 c -12.121,0.973 -12.218,2.75 -12.269,3.93 -0.11,2.031 2.23,2.844 6.859,3.692 40.27,7.378 65.32,26.171 66.988,50.25 1.473,21.242 -15.636,41.5 -42.589,50.429 -34.387,11.391 -76.028,4.942 -123.0981,-19.129 -0.6718,-0.582 -1.5,-0.941 -2.332,-0.941 M 186.59,371.051 C 84.8281,371.051 2.33984,288.559 2.33984,186.801 2.33984,85.0391 84.8281,2.53906 186.59,2.53906 c 101.762,0 184.25,82.50004 184.25,184.26194 0,101.758 -82.488,184.25 -184.25,184.25" style="fill:#b5921b;fill-opacity:1;fill-rule:nonzero;stroke:none" transform="matrix(0.13333333,0,0,-0.13333333,0,49.693333)"></path>
  </g></svg>